<?xml version="1.0" encoding="UTF-8" standalone="no"?>
<!-- Created with Inkscape (http://www.inkscape.org/) -->

<svg
   width="1500"
   height="500"
   viewBox="0 0 1500 500"
   version="1.1"
   id="svg1"
   xml:space="preserve"
   sodipodi:docname="tex.svg"
   inkscape:version="1.4.2 (f4327f4, 2025-05-13)"
   inkscape:export-filename="tex.png"
   inkscape:export-xdpi="96"
   inkscape:export-ydpi="96"
   xmlns:inkscape="http://www.inkscape.org/namespaces/inkscape"
   xmlns:sodipodi="http://sodipodi.sourceforge.net/DTD/sodipodi-0.dtd"
   xmlns="http://www.w3.org/2000/svg"
   xmlns:svg="http://www.w3.org/2000/svg"><sodipodi:namedview
     id="namedview1"
     pagecolor="#505050"
     bordercolor="#eeeeee"
     borderopacity="1"
     inkscape:showpageshadow="0"
     inkscape:pageopacity="0"
     inkscape:pagecheckerboard="0"
     inkscape:deskcolor="#505050"
     inkscape:document-units="px"
     inkscape:zoom="0.22627417"
     inkscape:cx="57.452426"
     inkscape:cy="315.98834"
     inkscape:window-width="1920"
     inkscape:window-height="1017"
     inkscape:window-x="-4"
     inkscape:window-y="-4"
     inkscape:window-maximized="1"
     inkscape:current-layer="layer1" /><defs
     id="defs1" /><g
     inkscape:label="Layer 1"
     inkscape:groupmode="layer"
     id="layer1"><text
       xml:space="preserve"
       style="font-size:278.5px;font-family:'JetBrains Mono';-inkscape-font-specification:'JetBrains Mono';text-align:start;writing-mode:lr-tb;direction:ltr;text-anchor:start;fill:#ffffff;stroke:#ffffff;stroke-width:14.505;stroke-dasharray:174.06, 174.06;stroke-dashoffset:0;stroke-opacity:1"
       x="462.83783"
       y="333.13226"
       id="text2"><tspan
         sodipodi:role="line"
         id="tspan2"
         x="462.83783"
         y="333.13226"
         style="stroke-width:14.505;stroke-dasharray:174.06, 174.06;stroke-dashoffset:0">quinox</tspan></text><g
       inkscape:label="Layer 1"
       id="layer1-4"
       style="display:inline"
       transform="matrix(0.42337125,0,0,0.42337125,5.802829,27.010584)"><circle
         style="fill:none;stroke:#ffffff;stroke-width:50;stroke-dasharray:none;stroke-opacity:1"
         id="path1"
         cx="540"
         cy="540"
         r="500" /><circle
         style="fill:none;stroke:#ffffff;stroke-width:42.6823;stroke-dasharray:none;stroke-opacity:1"
         id="path1-1"
         cx="540"
         cy="540"
         r="426.82281" /><path
         d="m 539.99981,823.35555 q -96.44012,0 -156.0938,-57.66523 -58.65946,-58.65945 -58.65946,-161.06494 V 475.37574 q 0,-102.40549 58.65946,-160.07071 59.65368,-58.65946 156.0938,-58.65946 64.62482,0 112.34776,25.84993 48.71718,25.84993 75.56133,72.57865 26.84416,46.72872 26.84416,110.35931 v 97.43435 H 412.73862 v 51.69985 q 0,60.64791 34.79798,96.44012 34.79798,34.79798 92.46321,34.79798 49.7114,0 81.5267,-18.89033 32.80952,-19.88456 39.76912,-52.69408 h 89.48052 q -8.94805,68.60173 -66.61328,109.36508 -57.66522,39.76912 -144.16306,39.76912 z M 412.73862,493.27184 H 667.261 v -27.83838 q 0,-64.62482 -33.80376,-99.4228 -32.80952,-35.79221 -93.45743,-35.79221 -60.64791,0 -94.45166,35.79221 -32.80953,34.79798 -32.80953,99.4228 z"
         id="text1"
         style="font-size:994.228px;font-family:'JetBrains Mono';-inkscape-font-specification:'JetBrains Mono';fill:#ffffff;stroke-width:258.914"
         aria-label="e" /><rect
         style="fill:#ffffff;fill-opacity:1;stroke:none;stroke-width:81.2366;stroke-dasharray:none;stroke-opacity:1"
         id="rect3"
         width="285.50073"
         height="69.657677"
         x="127.53359"
         y="493.20697" /><rect
         style="fill:#ffffff;fill-opacity:1;stroke:none;stroke-width:50;stroke-dasharray:none;stroke-opacity:1"
         id="rect4"
         width="71.771339"
         height="185.61552"
         x="27.962654"
         y="1004.121"
         ry="0"
         transform="rotate(-42.402487)" /></g></g></svg>
